<svg width="132" height="46" viewBox="0 0 132 46" fill="none" xmlns="http://www.w3.org/2000/svg">
<path d="M59.828 33.832C61.304 33.832 63.104 33.148 64.112 32.176L67.46 35.596C65.804 37.324 62.6 38.476 59.864 38.476C54.32 38.476 50 34.408 50 28.684C50 23.068 54.14 19 59.576 19C65.408 19 68.828 23.428 68.828 30.448H55.4C56.012 32.464 57.632 33.832 59.828 33.832ZM59.792 23.644C57.812 23.644 56.156 24.796 55.472 26.668H63.788C63.284 24.832 61.916 23.644 59.792 23.644Z" fill="black"/>
<path d="M81.4918 38.476C75.9838 38.476 71.3398 34.012 71.3398 28.72C71.3398 23.428 76.0198 19 81.5278 19C84.5518 19 87.0358 20.224 88.8358 22.168L85.3438 25.156C84.4078 24.112 82.9318 23.428 81.4918 23.428C78.7558 23.428 76.4518 25.84 76.4518 28.684C76.4518 31.6 78.7558 34.048 81.5278 34.048C82.9678 34.048 84.4798 33.328 85.4518 32.248L88.9438 35.2C87.1078 37.216 84.5878 38.476 81.4918 38.476Z" fill="black"/>
<path d="M100.89 33.832C102.366 33.832 104.166 33.148 105.174 32.176L108.523 35.596C106.867 37.324 103.663 38.476 100.927 38.476C95.3825 38.476 91.0625 34.408 91.0625 28.684C91.0625 23.068 95.2025 19 100.639 19C106.47 19 109.89 23.428 109.89 30.448H96.4625C97.0745 32.464 98.6945 33.832 100.89 33.832ZM100.854 23.644C98.8745 23.644 97.2185 24.796 96.5345 26.668H104.851C104.347 24.832 102.979 23.644 100.854 23.644Z" fill="black"/>
<path d="M124.21 19C128.242 19 131.122 21.988 131.122 26.2V38.044H126.046V27.316C126.046 25.012 124.606 23.428 122.518 23.428C120.322 23.428 118.63 25.012 118.63 27.028L118.594 26.92V38.044H113.338V19.432H118.594V21.772C119.71 20.08 121.798 19 124.21 19Z" fill="black"/>
<path d="M45.3879 14.1834C44.8167 9.38686 40.7599 7.8133 35.6785 7.39999L33.9661 7.28055L33.054 7.27212L31.7467 7.26003C30.7141 7.26911 29.6593 7.2996 28.6112 7.33048L26.6272 7.43727L25.6321 7.48684L23.712 7.4691L22.189 7.45503L14.132 7.38058L14.1723 11.882C14.1723 11.882 21.6204 11.8951 21.5737 11.9503L21.5961 14.4592L14.1948 14.3908L14.2334 18.7063L21.6348 18.7747C21.6424 19.631 21.6862 24.5218 21.6976 25.7906L10.2308 25.6846L10.2713 30.2069C10.7678 30.2115 21.0748 30.3067 21.7381 30.3128C21.7562 32.3371 21.7406 30.6019 21.7632 33.1226C20.9525 33.1151 7.12327 32.9874 7.12327 32.9874L7.1674 37.9163L22.671 38.0596C23.6223 38.0525 24.5586 38.0608 25.4777 38.0583L26 38.0596L27.4002 38.0541L29.4044 38.0952C30.4823 38.1087 31.5248 38.1082 32.5428 38.0983L34.2421 38.112L34.7499 38.112L36.4675 37.9727C43.0604 37.5233 47.6379 35.7657 48.0466 29.3614C48.377 24.2048 45.9691 21.9267 42.1972 21.031C44.4436 19.8141 45.8131 17.6932 45.3893 14.1835L45.3879 14.1834ZM40.264 28.6321C40.3959 33.6649 32.0306 33.1667 29.3689 33.1929L29.14 24.2699C31.8025 24.2472 40.1289 23.3828 40.264 28.6321ZM38.1128 16.0593C38.2297 20.6379 31.2518 20.1656 29.0347 20.1854L28.8264 12.0929C31.0435 12.0731 37.9891 11.284 38.1128 16.0593Z" fill="black"/>
</svg>
